<svg width="254" height="31" viewBox="0 0 254 31" fill="none" xmlns="http://www.w3.org/2000/svg">
<path d="M8.04 21.44L5.92 18.96L20.92 5.4H16.56V2.72H28.32V5.4H25.88L8.04 21.44ZM0.2 30V27.32H3.76V5.4H0.28V2.72H12.76V5.4H9.2V27.32H12.48V30H0.2ZM16.52 30V27.32H20.12L11.4 16.96L15.28 13.56L26.96 27.32H29.32V30H16.52ZM31.9619 21.08V17H44.4419V21.08H31.9619ZM64.9797 30.48C63.0064 30.48 61.153 30.16 59.4197 29.52C57.6864 28.88 56.2197 27.88 55.0197 26.52C53.8464 25.16 53.073 23.4 52.6997 21.24H54.1397C54.753 22.6267 55.553 23.7867 56.5397 24.72C57.553 25.6267 58.713 26.3067 60.0197 26.76C61.353 27.2133 62.7797 27.44 64.2997 27.44C66.0597 27.44 67.4197 27.0933 68.3797 26.4C69.3664 25.68 69.8597 24.64 69.8597 23.28C69.8597 22.3467 69.593 21.6 69.0597 21.04C68.553 20.48 67.8597 20.0533 66.9797 19.76C66.1264 19.4667 65.193 19.24 64.1797 19.08L61.1797 18.64C59.1797 18.3467 57.3797 17.88 55.7797 17.24C54.1797 16.5733 52.913 15.6533 51.9797 14.48C51.0464 13.3067 50.5797 11.8267 50.5797 10.04C50.5797 8.22667 51.0064 6.74667 51.8597 5.6C52.713 4.45333 53.873 3.61333 55.3397 3.08C56.8064 2.52 58.4864 2.24 60.3797 2.24C62.2197 2.24 63.9264 2.54667 65.4997 3.16C67.0997 3.74667 68.4464 4.69333 69.5397 6C70.6597 7.28 71.4064 8.98667 71.7797 11.12H70.4597C69.6864 9.12 68.4464 7.65333 66.7397 6.72C65.0597 5.76 63.1797 5.28 61.0997 5.28C59.3664 5.28 58.0197 5.6 57.0597 6.24C56.0997 6.88 55.6197 7.86666 55.6197 9.2C55.6197 10.08 55.8597 10.8 56.3397 11.36C56.8197 11.92 57.4597 12.3467 58.2597 12.64C59.0864 12.9333 59.993 13.16 60.9797 13.32L63.9397 13.76C66.0464 14.0533 67.9264 14.52 69.5797 15.16C71.233 15.7733 72.5397 16.64 73.4997 17.76C74.4597 18.88 74.9397 20.36 74.9397 22.2C74.9397 24.04 74.5264 25.5733 73.6997 26.8C72.873 28.0267 71.713 28.9467 70.2197 29.56C68.7264 30.1733 66.9797 30.48 64.9797 30.48ZM50.8597 30V21.24H52.6997L54.0597 24.04V30H50.8597ZM71.7797 11.12L70.5397 8.44V2.72H73.6997V11.12H71.7797ZM78.1306 30V27.36H81.3306V4.16H78.3706V1.52H86.5306V27.36H88.9306V30H78.1306ZM92.1306 30V27.36H94.7706L88.6906 19.48L92.0106 16.36L100.571 27.36H102.651V30H92.1306ZM86.2506 23.64L84.2906 21.48L95.0506 11.96H91.3306V9.32H101.811V11.96H99.5706L86.2506 23.64ZM105.361 30V27.36H108.681V11.96H105.681V9.32H113.881V27.36H116.801V30H105.361ZM111.041 6.96C110.081 6.96 109.294 6.69333 108.681 6.16C108.068 5.6 107.761 4.85333 107.761 3.92C107.761 2.98667 108.068 2.25333 108.681 1.72C109.294 1.18666 110.094 0.919998 111.081 0.919998C112.041 0.919998 112.814 1.18666 113.401 1.72C114.014 2.25333 114.321 2.98667 114.321 3.92C114.321 4.85333 114.014 5.6 113.401 6.16C112.814 6.69333 112.028 6.96 111.041 6.96ZM133.904 30V27.36H136.544V16.12C136.544 14.8667 136.198 13.9467 135.504 13.36C134.811 12.7733 133.878 12.48 132.704 12.48C131.878 12.48 131.104 12.6667 130.384 13.04C129.664 13.3867 129.078 13.96 128.624 14.76C128.171 15.56 127.944 16.6133 127.944 17.92L126.944 17.96C126.944 15.9867 127.198 14.3333 127.704 13C128.238 11.6667 129.078 10.6667 130.224 10C131.371 9.30667 132.851 8.96 134.664 8.96C136.718 8.96 138.398 9.52 139.704 10.64C141.011 11.7333 141.664 13.5067 141.664 15.96V27.36H144.344V30H133.904ZM119.384 30V27.36H122.704V11.96H119.704V9.32H127.344V16.4L127.944 16.28V27.36H130.544V30H119.384ZM161.483 30.6C158.763 30.6 156.336 30.0533 154.203 28.96C152.069 27.84 150.403 26.2267 149.203 24.12C148.003 21.9867 147.403 19.4 147.403 16.36C147.403 13.32 147.989 10.7467 149.163 8.64C150.363 6.50667 151.989 4.89333 154.043 3.8C156.096 2.68 158.429 2.12 161.043 2.12C163.336 2.12 165.296 2.52 166.923 3.32C168.549 4.09333 169.803 5.21333 170.683 6.68C171.589 8.12 172.056 9.84 172.083 11.84H170.803C170.669 10.72 170.296 9.66667 169.683 8.68C169.096 7.66666 168.229 6.85333 167.083 6.24C165.963 5.62666 164.563 5.32 162.883 5.32C160.989 5.32 159.336 5.76 157.923 6.64C156.509 7.52 155.403 8.77333 154.603 10.4C153.803 12 153.403 13.9333 153.403 16.2C153.403 18.3867 153.803 20.2933 154.603 21.92C155.403 23.5467 156.523 24.8133 157.963 25.72C159.429 26.6 161.123 27.04 163.043 27.04C164.936 27.04 166.496 26.68 167.723 25.96C168.976 25.2133 169.909 24.24 170.523 23.04C171.163 21.8133 171.536 20.48 171.643 19.04H172.723C172.749 21.2267 172.389 23.2 171.643 24.96C170.896 26.6933 169.696 28.0667 168.043 29.08C166.389 30.0933 164.203 30.6 161.483 30.6ZM171.763 30V22.48L172.723 19.04H174.963V30H171.763ZM163.243 19.04V16.08H178.323V19.04H163.243ZM172.083 11.84L170.843 9.12V2.72H174.043V11.84H172.083ZM180.045 30V27.36H183.245V4.16H180.285V1.52H188.445V27.36H191.405V30H180.045ZM205.756 30.48C203.542 30.48 201.569 30.0667 199.836 29.24C198.102 28.3867 196.742 27.1467 195.756 25.52C194.769 23.8933 194.276 21.9333 194.276 19.64C194.276 17.3467 194.769 15.3867 195.756 13.76C196.742 12.1333 198.102 10.9067 199.836 10.08C201.569 9.22667 203.542 8.8 205.756 8.8C207.969 8.8 209.929 9.22667 211.636 10.08C213.369 10.9067 214.729 12.1333 215.716 13.76C216.702 15.3867 217.196 17.3467 217.196 19.64C217.196 21.9333 216.702 23.8933 215.716 25.52C214.729 27.1467 213.369 28.3867 211.636 29.24C209.929 30.0667 207.969 30.48 205.756 30.48ZM205.756 27.56C206.929 27.56 207.929 27.24 208.756 26.6C209.609 25.96 210.276 25.04 210.756 23.84C211.236 22.64 211.476 21.1867 211.476 19.48C211.476 17.8533 211.236 16.4667 210.756 15.32C210.276 14.1467 209.609 13.2533 208.756 12.64C207.929 12.0267 206.929 11.72 205.756 11.72C204.582 11.72 203.569 12.04 202.716 12.68C201.862 13.2933 201.196 14.1867 200.716 15.36C200.236 16.5333 199.996 17.96 199.996 19.64C199.996 21.32 200.236 22.7467 200.716 23.92C201.196 25.0933 201.862 26 202.716 26.64C203.569 27.2533 204.582 27.56 205.756 27.56ZM240.377 30.08L233.537 11.96H231.497V9.32H242.057V11.96H238.617L243.697 26.6L242.457 26.56L247.857 11.96H244.457V9.32H253.257V11.96H251.337L244.457 30.08H240.377ZM227.657 30.08L220.857 11.96H218.977V9.32H228.897V11.96H226.177L231.257 26.6L230.137 26.56L235.537 11.96L236.857 16.72L231.897 30.08H227.657Z" fill="white"/>
</svg>
